<svg version="1.0" xmlns="http://www.w3.org/2000/svg"
 width="512.000000pt" height="512.000000pt" viewBox="0 0 512.000000 512.000000"
 preserveAspectRatio="xMidYMid meet">

<g transform="translate(0.000000,512.000000) scale(0.100000,-0.100000)"
fill="#000000" stroke="none">
<path d="M90 4948 c-49 -25 -90 -89 -90 -140 0 -44 30 -107 62 -129 17 -12
188 -84 380 -160 193 -75 354 -141 358 -146 3 -4 197 -557 429 -1227 l422
-1219 -35 -29 c-39 -32 -30 -11 -187 -446 -112 -312 -123 -357 -95 -411 25
-48 62 -64 154 -69 45 -3 82 -8 82 -12 0 -4 -8 -15 -19 -24 -35 -32 -81 -150
-93 -239 -10 -73 -9 -95 5 -153 26 -102 64 -171 137 -244 196 -196 487 -198
686 -5 99 97 147 213 147 352 -1 97 -28 189 -79 264 -19 28 -34 53 -34 55 0 2
239 4 531 4 l531 0 -24 -32 c-146 -192 -125 -469 48 -642 86 -86 228 -146 345
-146 164 1 340 103 423 245 98 167 86 387 -31 543 l-24 32 88 0 c64 0 97 5
122 18 100 50 105 181 10 237 -33 20 -54 20 -1362 23 -1286 2 -1328 3 -1322
21 3 10 36 102 73 205 l67 186 1258 0 c1242 0 1258 0 1297 20 26 13 47 34 60
60 29 57 710 2185 710 2218 0 44 -41 114 -80 137 -35 20 -51 20 -1919 25
l-1884 5 -79 224 c-83 238 -94 261 -134 287 -44 29 -807 326 -849 331 -29 3
-53 -2 -85 -19z m2270 -1343 l0 -185 -439 0 -439 0 -26 73 c-14 39 -43 123
-65 185 l-39 112 504 0 504 0 0 -185z m1088 3 l-3 -183 -377 -3 -378 -2 0 185
0 185 380 0 380 0 -2 -182z m1282 180 c0 -2 -27 -84 -59 -183 l-58 -180 -419
0 -419 0 -3 183 -2 182 480 0 c264 0 480 -1 480 -2z m-2370 -908 l0 -210 -310
0 c-170 0 -310 1 -310 3 0 1 -31 92 -70 202 -38 110 -70 203 -70 207 0 4 171
8 380 8 l380 0 0 -210z m1090 0 l0 -210 -380 0 -380 0 0 210 0 210 380 0 380
0 0 -210z m1050 201 c0 -5 -29 -98 -64 -207 l-64 -199 -301 -3 -301 -2 0 210
0 210 365 0 c202 0 365 -4 365 -9z m-2140 -916 l0 -175 -192 2 -193 3 -57 165
c-32 91 -58 168 -58 173 0 4 113 7 250 7 l250 0 0 -175z m1090 0 l0 -175 -380
0 -380 0 0 175 0 175 380 0 380 0 0 -175z m809 163 c0 -7 -24 -85 -52 -173
l-53 -160 -192 -3 -192 -2 0 175 0 175 245 0 c190 0 245 -3 244 -12z m-2231
-1484 c147 -61 178 -257 57 -362 -47 -42 -77 -53 -141 -53 -64 0 -110 18 -153
62 -44 44 -61 86 -61 154 0 154 157 258 298 199z m1844 -20 c50 -34 98 -119
98 -172 0 -123 -95 -223 -214 -224 -183 -2 -285 192 -181 342 63 91 206 118
297 54z"/>
</g>
</svg>
